<?xml version="1.0" standalone="no"?>
<!DOCTYPE svg PUBLIC "-//W3C//DTD SVG 20010904//EN"
 "http://www.w3.org/TR/2001/REC-SVG-20010904/DTD/svg10.dtd">
<svg version="1.0" xmlns="http://www.w3.org/2000/svg"
 width="300.000000pt" height="300.000000pt" viewBox="0 0 300.000000 300.000000"
 preserveAspectRatio="xMidYMid meet">
<metadata>
Created by potrace 1.11, written by Peter Selinger 2001-2013
</metadata>
<g transform="translate(0.000000,300.000000) scale(0.100000,-0.100000)"
fill="#000000" stroke="none">
<path d="M550 1503 l0 -1333 190 0 190 0 2 626 3 626 110 -77 c361 -253 790
-691 1069 -1093 l58 -82 224 0 224 0 -26 43 c-277 441 -759 975 -1172 1297
l-100 77 307 309 c484 487 897 922 885 933 -3 3 -105 6 -225 6 l-220 1 -81
-91 c-151 -168 -404 -428 -890 -912 l-173 -173 0 581 c0 320 -2 584 -5 588 -3
4 -87 7 -187 7 l-183 0 0 -1333z"/>
</g>
</svg>
