<?xml version="1.0" standalone="no"?>
<!DOCTYPE svg PUBLIC "-//W3C//DTD SVG 20010904//EN"
 "http://www.w3.org/TR/2001/REC-SVG-20010904/DTD/svg10.dtd">
<svg version="1.0" xmlns="http://www.w3.org/2000/svg"
 width="160.000000pt" height="160.000000pt" viewBox="0 0 160.000000 160.000000"
 preserveAspectRatio="xMidYMid meet">
<metadata>
Created by potrace 1.11, written by Peter Selinger 2001-2013
</metadata>
<g transform="translate(0.000000,160.000000) scale(0.100000,-0.100000)"
fill="#000000" stroke="none">
<path d="M804 1409 c-66 -18 -114 -105 -101 -182 5 -31 2 -35 -51 -69 -172
-109 -340 -157 -417 -118 l-34 17 -16 -39 c-8 -21 -20 -73 -26 -114 -12 -75
-11 -76 14 -102 23 -23 32 -25 104 -24 76 1 183 28 298 76 l40 17 -27 -25
c-21 -19 -147 -71 -168 -69 -3 0 -14 -3 -25 -7 -46 -17 -150 -21 -197 -6 l-48
14 6 -51 c4 -29 14 -77 23 -107 23 -76 56 -93 166 -86 44 3 91 8 105 11 14 3
36 8 49 11 14 3 59 18 100 34 72 28 96 31 74 9 -19 -19 -210 -78 -275 -85 -80
-9 -94 -9 -141 0 l-39 7 26 -43 c41 -69 106 -139 145 -155 35 -15 141 -13 199
3 26 7 30 -11 5 -21 -10 -4 -53 -9 -97 -12 l-78 -6 58 -33 c33 -19 75 -39 94
-45 19 -7 48 -23 64 -36 32 -27 32 -27 201 -3 89 13 237 59 238 75 0 6 4 26 9
45 10 41 21 240 13 240 -3 0 -52 -27 -109 -60 -57 -33 -107 -60 -111 -60 -22
0 13 28 105 82 102 61 105 64 106 99 1 31 -40 196 -51 207 -2 2 -16 -5 -32
-15 -65 -45 -73 -39 -17 13 l37 33 -17 34 c-9 19 -16 44 -16 55 0 49 -44 111
-78 112 -14 0 -58 48 -61 64 -1 6 11 12 26 14 73 9 133 85 128 162 -7 100
-102 166 -201 139z"/>
<path d="M1000 1402 c0 -4 4 -12 9 -17 5 -6 19 -39 32 -75 12 -36 26 -69 30
-73 6 -7 29 44 35 78 4 26 -19 56 -57 75 -48 23 -49 23 -49 12z"/>
<path d="M398 1311 c-87 -65 -185 -200 -172 -235 20 -52 166 -31 318 46 71 36
146 85 146 97 0 14 -229 124 -253 121 -1 0 -19 -13 -39 -29z"/>
<path d="M1124 1332 c8 -13 -14 -84 -35 -113 -10 -14 -16 -28 -13 -31 6 -7 7
-154 0 -203 -3 -23 -12 -63 -20 -90 -9 -27 -13 -51 -11 -53 9 -9 193 186 220
232 52 91 38 135 -71 224 -46 38 -84 56 -70 34z"/>
<path d="M1306 1109 c-31 -77 -102 -161 -225 -267 l-34 -29 55 -6 c30 -3 89
-17 132 -31 87 -29 81 -31 135 47 39 58 48 102 31 164 -12 45 -66 163 -74 163
-2 0 -11 -19 -20 -41z"/>
<path d="M1374 796 l-41 -64 44 -21 43 -21 1 28 c4 86 4 142 -1 141 -3 0 -23
-29 -46 -63z"/>
</g>
</svg>
